<?xml version="1.0" encoding="UTF-8"?>
<svg id="Layer_1" data-name="Layer 1" xmlns="http://www.w3.org/2000/svg" version="1.1" xmlns:xlink="http://www.w3.org/1999/xlink" viewBox="0 0 2000 900">
  <defs>
    <style>
      .cls-1 {
        fill: #e8b121;
      }

      .cls-1, .cls-2, .cls-3, .cls-4, .cls-5, .cls-6, .cls-7, .cls-8 {
        stroke-width: 0px;
      }

      .cls-9 {
        clip-path: url(#clippath-20);
      }

      .cls-10 {
        clip-path: url(#clippath-11);
      }

      .cls-11 {
        clip-path: url(#clippath-16);
      }

      .cls-2 {
        fill: #493e43;
      }

      .cls-12 {
        clip-path: url(#clippath-32);
      }

      .cls-13 {
        clip-path: url(#clippath-2);
      }

      .cls-14 {
        clip-path: url(#clippath-13);
      }

      .cls-15 {
        clip-path: url(#clippath-25);
      }

      .cls-3 {
        fill: #5f544c;
      }

      .cls-16 {
        clip-path: url(#clippath-15);
      }

      .cls-17 {
        clip-path: url(#clippath-6);
      }

      .cls-18 {
        clip-path: url(#clippath-26);
      }

      .cls-4 {
        fill: none;
      }

      .cls-5 {
        fill: #da9128;
      }

      .cls-19 {
        clip-path: url(#clippath-7);
      }

      .cls-20 {
        clip-path: url(#clippath-21);
      }

      .cls-21 {
        clip-path: url(#clippath-1);
      }

      .cls-22 {
        clip-path: url(#clippath-4);
      }

      .cls-23 {
        clip-path: url(#clippath-27);
      }

      .cls-24 {
        clip-path: url(#clippath-12);
      }

      .cls-25 {
        clip-path: url(#clippath-24);
      }

      .cls-26 {
        clip-path: url(#clippath-30);
      }

      .cls-27 {
        clip-path: url(#clippath-22);
      }

      .cls-6 {
        fill: #e8b023;
      }

      .cls-28 {
        clip-path: url(#clippath-9);
      }

      .cls-29 {
        clip-path: url(#clippath);
      }

      .cls-30 {
        clip-path: url(#clippath-19);
      }

      .cls-31 {
        clip-path: url(#clippath-31);
      }

      .cls-32 {
        clip-path: url(#clippath-3);
      }

      .cls-33 {
        clip-path: url(#clippath-8);
      }

      .cls-34 {
        clip-path: url(#clippath-29);
      }

      .cls-35 {
        clip-path: url(#clippath-18);
      }

      .cls-36 {
        clip-path: url(#clippath-14);
      }

      .cls-37 {
        clip-path: url(#clippath-17);
      }

      .cls-38 {
        clip-path: url(#clippath-5);
      }

      .cls-39 {
        clip-path: url(#clippath-10);
      }

      .cls-7 {
        fill: #766861;
      }

      .cls-40 {
        clip-path: url(#clippath-23);
      }

      .cls-8 {
        fill: #fad232;
      }

      .cls-41 {
        clip-path: url(#clippath-28);
      }
    </style>
    <clipPath id="clippath">
      <rect class="cls-4" width="2000" height="900"/>
    </clipPath>
    <clipPath id="clippath-1">
      <rect class="cls-4" width="2000" height="900"/>
    </clipPath>
    <clipPath id="clippath-2">
      <rect class="cls-4" width="2000" height="900"/>
    </clipPath>
    <clipPath id="clippath-3">
      <rect class="cls-4" width="2000" height="900"/>
    </clipPath>
    <clipPath id="clippath-4">
      <rect class="cls-4" width="2000" height="900"/>
    </clipPath>
    <clipPath id="clippath-5">
      <rect class="cls-4" width="2000" height="900"/>
    </clipPath>
    <clipPath id="clippath-6">
      <rect class="cls-4" width="2000" height="900"/>
    </clipPath>
    <clipPath id="clippath-7">
      <rect class="cls-4" width="2000" height="900"/>
    </clipPath>
    <clipPath id="clippath-8">
      <rect class="cls-4" width="2000" height="900"/>
    </clipPath>
    <clipPath id="clippath-9">
      <rect class="cls-4" width="2000" height="900"/>
    </clipPath>
    <clipPath id="clippath-10">
      <rect class="cls-4" width="2000" height="900"/>
    </clipPath>
    <clipPath id="clippath-11">
      <rect class="cls-4" width="2000" height="900"/>
    </clipPath>
    <clipPath id="clippath-12">
      <rect class="cls-4" width="2000" height="900"/>
    </clipPath>
    <clipPath id="clippath-13">
      <rect class="cls-4" width="2000" height="900"/>
    </clipPath>
    <clipPath id="clippath-14">
      <rect class="cls-4" width="2000" height="900"/>
    </clipPath>
    <clipPath id="clippath-15">
      <rect class="cls-4" width="2000" height="900"/>
    </clipPath>
    <clipPath id="clippath-16">
      <rect class="cls-4" width="2000" height="900"/>
    </clipPath>
    <clipPath id="clippath-17">
      <rect class="cls-4" width="2000" height="900"/>
    </clipPath>
    <clipPath id="clippath-18">
      <rect class="cls-4" width="2000" height="900"/>
    </clipPath>
    <clipPath id="clippath-19">
      <rect class="cls-4" width="2000" height="900"/>
    </clipPath>
    <clipPath id="clippath-20">
      <rect class="cls-4" width="2000" height="900"/>
    </clipPath>
    <clipPath id="clippath-21">
      <rect class="cls-4" width="2000" height="900"/>
    </clipPath>
    <clipPath id="clippath-22">
      <rect class="cls-4" width="2000" height="900"/>
    </clipPath>
    <clipPath id="clippath-23">
      <rect class="cls-4" width="2000" height="900"/>
    </clipPath>
    <clipPath id="clippath-24">
      <rect class="cls-4" width="2000" height="900"/>
    </clipPath>
    <clipPath id="clippath-25">
      <rect class="cls-4" width="2000" height="900"/>
    </clipPath>
    <clipPath id="clippath-26">
      <rect class="cls-4" width="2000" height="900"/>
    </clipPath>
    <clipPath id="clippath-27">
      <rect class="cls-4" width="2000" height="900"/>
    </clipPath>
    <clipPath id="clippath-28">
      <rect class="cls-4" width="2000" height="900"/>
    </clipPath>
    <clipPath id="clippath-29">
      <rect class="cls-4" width="2000" height="900"/>
    </clipPath>
    <clipPath id="clippath-30">
      <rect class="cls-4" width="2000" height="900"/>
    </clipPath>
    <clipPath id="clippath-31">
      <rect class="cls-4" width="2000" height="900"/>
    </clipPath>
    <clipPath id="clippath-32">
      <rect class="cls-4" width="2000" height="900"/>
    </clipPath>
  </defs>
  <polyline class="cls-3" points="102.7 662.7 486 434.9 486 280.2 102.7 507.7"/>
  <polygon class="cls-2" points="486 434.7 486 280.2 341.7 365.9 486 434.7"/>
  <polygon class="cls-2" points="102.7 507.7 102.7 662.7 263.7 567 102.7 507.7"/>
  <polyline class="cls-7" points="102.7 662.7 293.7 777.3 293.7 622.4 102.7 507.8"/>
  <polygon class="cls-7" points="293.5 322.1 486 435.1 486 280.2 293.5 167.2 293.5 322.1"/>
  <polygon class="cls-1" points="293.7 322.1 102.7 435.1 102.7 280.2 293.7 167.2 293.7 322.1"/>
  <polyline class="cls-6" points="486 662.7 293.5 777.3 293.5 622.4 486 507.8"/>
  <polygon class="cls-5" points="102.7 280.2 102.7 435.1 264.6 339.3 102.7 280.2"/>
  <polygon class="cls-5" points="486 662.3 486 507.8 341.7 593.7 486 662.3"/>
  <polyline class="cls-8" points="486 662.7 102.7 434.9 102.7 280.2 486 507.7"/>
  <g>
    <g class="cls-29">
      <path class="cls-1" d="M766.8,368.1h-87.2c-5.5,0-10.3,1.6-14.5,4.8-4.1,3.2-6.2,8-6.2,14.5s.5,6.6,1.7,9c1.1,2.4,2.6,4.4,4.5,5.9,1.9,1.5,4.1,2.6,6.6,3.3,2.5.7,5.1,1,7.8,1h49.8c4.3,0,9,.7,14.4,2.2,5.3,1.5,10.3,4,15,7.5,4.7,3.6,8.6,8.4,11.8,14.6,3.2,6.1,4.8,13.9,4.8,23.2s-1.6,17.1-4.8,23.1c-3.2,6.1-7.1,10.9-11.8,14.5s-9.7,6.1-15,7.5-10.1,2.2-14.4,2.2h-104.5v-27.5h88.8c2.9,0,5.6-.5,8.2-1.5,2.5-1,4.8-2.4,6.6-4.1s3.3-3.8,4.4-6.2,1.7-5.1,1.7-8c0-5.8-2-10.5-6.1-14.2-4.1-3.7-9-5.6-14.8-5.6h-49.6c-4.4,0-9.3-.7-14.6-2.1s-10.3-3.8-15-7.3c-4.7-3.5-8.6-8.3-11.8-14.4-3.2-6.1-4.8-13.8-4.8-23.1s1.6-17,4.8-23,7.1-10.7,11.8-14.2,9.7-6,15-7.3c5.3-1.4,10.2-2.1,14.6-2.1h102.7v27.5h0Z"/>
    </g>
    <g class="cls-21">
      <path class="cls-1" d="M844.9,340.6h34.3l67.8,160.7h-36.2l-15.7-39h-66.1l-15.7,39h-36.2l67.8-160.7ZM839.1,437.1h45.9l-22.9-57.2-22.9,57.2Z"/>
    </g>
    <g class="cls-13">
      <rect class="cls-1" x="957.3" y="340.6" width="33.9" height="160.7"/>
    </g>
    <g class="cls-32">
      <path class="cls-1" d="M1041.9,498.2c-6.7-2.1-12.6-5.4-17.7-9.9-5.1-4.5-9.1-10.5-12.1-18-3-7.4-4.4-16.5-4.4-27.3v-102.5h33.9v100.2c0,4.8.8,9.2,2.3,13.2,1.5,4,3.7,7.5,6.5,10.4,2.8,3,6.3,5.3,10.3,6.9,4.1,1.6,8.7,2.5,13.9,2.5h44.2v27.5h-55.8c-7.4,0-14.5-1-21.2-3.1"/>
    </g>
    <g class="cls-22">
      <path class="cls-1" d="M1120.4,388.5c2.4-10,6.6-18.8,12.7-26.2,6.1-7.4,14.2-13.3,24.6-17.6,10.3-4.3,23.4-6.4,39.2-6.4s28.7,2.1,39,6.4c10.3,4.3,18.5,10.1,24.6,17.6,6.1,7.4,10.3,16.2,12.7,26.2,2.4,10,3.6,20.9,3.6,32.4s-1.2,22.2-3.6,32.2c-2.4,10-6.6,18.8-12.7,26.2-6.1,7.4-14.2,13.3-24.6,17.7-10.3,4.3-23.3,6.5-39,6.5s-28.9-2.2-39.2-6.5c-10.3-4.3-18.5-10.2-24.6-17.7-6.1-7.4-10.3-16.2-12.7-26.2-2.4-10-3.6-20.8-3.6-32.2,0-11.6,1.2-22.4,3.6-32.4M1172.9,369.5c-5.9,3.2-10.4,7.4-13.5,12.6-3.1,5.2-5.1,11.2-6,18-.9,6.8-1.3,13.7-1.3,20.9s.4,14.1,1.3,20.9c.9,6.8,2.9,12.7,6,18,3.1,5.2,7.6,9.4,13.5,12.6s13.9,4.8,24,4.8,18-1.6,23.9-4.8c5.8-3.2,10.3-7.4,13.4-12.6,3.1-5.2,5.1-11.2,6-18,.9-6.8,1.3-13.7,1.3-20.9s-.4-14.1-1.3-20.9c-.9-6.8-2.9-12.7-6-18s-7.6-9.4-13.4-12.6c-5.8-3.2-13.8-4.8-23.9-4.8s-18,1.6-24,4.8"/>
    </g>
    <g class="cls-38">
      <polygon class="cls-1" points="1416.7 340.6 1416.7 368.1 1362.6 368.1 1362.6 501.3 1328.7 501.3 1328.7 368.1 1274.8 368.1 1274.8 340.6 1416.7 340.6"/>
    </g>
    <g class="cls-17">
      <path class="cls-1" d="M1542.5,434.2h-90.5c1.9,14,5.9,24.2,11.9,30.4,6,6.2,14.8,9.3,26.5,9.3h54.5v27.5h-63.8c-21.8,0-38.3-6.9-49.6-20.7-11.3-13.8-16.9-33.7-16.9-59.7s5.7-45.9,16.9-59.7c11.3-13.8,27.8-20.7,49.6-20.7h63.8v27.5h-54.5c-3.7,0-7.6.4-11.7,1-4.1.7-7.9,2.3-11.5,5s-6.7,6.6-9.4,11.9c-2.7,5.3-4.7,12.6-5.9,21.8h90.5v26.5Z"/>
    </g>
    <g class="cls-19">
      <path class="cls-1" d="M1691.8,368.1h-58.1c-13.9,0-23.9,4.5-29.9,13.5-6.1,9-9.1,22.1-9.1,39.4s3,30.3,9.1,39.4c6.1,9,16,13.5,29.9,13.5h58.1v27.5h-68c-21.8,0-38.3-6.9-49.6-20.7-11.3-13.8-16.9-33.7-16.9-59.7s5.7-45.9,16.9-59.7c11.3-13.8,27.8-20.7,49.6-20.7h68v27.5Z"/>
    </g>
    <g class="cls-33">
      <polygon class="cls-1" points="1708.1 340.6 1742 340.6 1742 407.7 1806.2 407.7 1806.2 340.6 1840.1 340.6 1840.1 501.3 1806.2 501.3 1806.2 434.2 1742 434.2 1742 501.3 1708.1 501.3 1708.1 340.6"/>
    </g>
    <g class="cls-28">
      <polygon class="cls-3" points="651.2 604.7 643.7 604.7 643.7 547.1 623.3 547.1 623.3 540.4 671.5 540.4 671.5 547.1 651.2 547.1 651.2 604.7"/>
    </g>
    <g class="cls-39">
      <path class="cls-3" d="M706.4,555.6c2.1,0,4.1.2,5.8.5l-1,6.8c-2-.4-3.8-.7-5.3-.7-3.9,0-7.2,1.6-10,4.8s-4.2,7.1-4.2,11.8v25.9h-7.3v-48.2h6l.8,8.9h.3c1.8-3.1,3.9-5.6,6.5-7.3,2.5-1.7,5.3-2.6,8.3-2.6"/>
    </g>
    <g class="cls-10">
      <path class="cls-3" d="M755.2,604.7l-1.5-6.9h-.3c-2.4,3-4.8,5.1-7.2,6.1s-5.4,1.6-9,1.6-8.5-1.2-11.2-3.7c-2.7-2.5-4.1-6-4.1-10.5,0-9.7,7.8-14.8,23.4-15.3l8.2-.3v-3c0-3.8-.8-6.6-2.4-8.4s-4.2-2.7-7.8-2.7-8.6,1.2-13.6,3.7l-2.2-5.6c2.4-1.3,5-2.3,7.8-3,2.8-.7,5.7-1.1,8.5-1.1,5.8,0,10,1.3,12.8,3.8s4.2,6.6,4.2,12.3v32.9h-5.4ZM738.7,599.6c4.5,0,8.1-1.2,10.7-3.7s3.9-6,3.9-10.5v-4.4l-7.3.3c-5.8.2-10,1.1-12.6,2.7-2.6,1.6-3.8,4.1-3.8,7.5s.8,4.7,2.4,6c1.6,1.4,3.8,2.1,6.7,2.1"/>
    </g>
    <g class="cls-24">
      <path class="cls-3" d="M812.9,604.7v-31.2c0-3.9-.9-6.9-2.7-8.8-1.8-1.9-4.6-2.9-8.4-2.9s-8.7,1.4-11.1,4.1c-2.3,2.7-3.5,7.2-3.5,13.5v25.3h-7.3v-48.2h5.9l1.2,6.6h.3c1.5-2.4,3.6-4.2,6.3-5.5,2.7-1.3,5.7-2,9-2,5.8,0,10.2,1.4,13.1,4.2s4.4,7.3,4.4,13.4v31.5h-7.3Z"/>
    </g>
    <g class="cls-14">
      <path class="cls-3" d="M870.7,591.6c0,4.5-1.7,8-5,10.4-3.3,2.4-8,3.7-14.1,3.7s-11.4-1-15-3v-6.8c2.3,1.2,4.8,2.1,7.5,2.8,2.7.7,5.2,1,7.7,1,3.8,0,6.7-.6,8.8-1.8,2-1.2,3.1-3.1,3.1-5.6s-.8-3.5-2.4-4.8c-1.6-1.3-4.8-2.9-9.5-4.7-4.5-1.7-7.7-3.1-9.6-4.4s-3.3-2.7-4.2-4.2-1.4-3.5-1.4-5.7c0-3.9,1.6-7,4.8-9.3,3.2-2.3,7.6-3.4,13.2-3.4s10.3,1,15.2,3.2l-2.6,5.9c-4.8-2-9.2-3-13.2-3s-6.1.5-7.8,1.6c-1.8,1.1-2.6,2.6-2.6,4.5s.3,2.4,1,3.3,1.7,1.8,3.2,2.6c1.5.8,4.3,2,8.5,3.6,5.7,2.1,9.6,4.2,11.6,6.3,2,2.1,3,4.8,3,8"/>
    </g>
    <g class="cls-36">
      <path class="cls-3" d="M908.6,562.2h-12.3v42.5h-7.3v-42.5h-8.6v-3.3l8.6-2.6v-2.7c0-11.8,5.2-17.8,15.5-17.8s5.5.5,9,1.5l-1.9,5.8c-2.8-.9-5.2-1.4-7.2-1.4s-4.8.9-6.1,2.8-2,4.8-2,8.8v3.1h12.3v5.7Z"/>
    </g>
    <g class="cls-16">
      <path class="cls-3" d="M963.3,580.6c0,7.9-2,14-5.9,18.4s-9.4,6.6-16.4,6.6-8.1-1-11.5-3c-3.3-2-5.9-4.9-7.7-8.7-1.8-3.8-2.7-8.2-2.7-13.3,0-7.9,2-14,5.9-18.4,3.9-4.4,9.4-6.6,16.4-6.6s12.1,2.2,16.1,6.7c4,4.5,6,10.6,6,18.2M926.6,580.6c0,6.2,1.2,10.8,3.7,14.1,2.5,3.2,6.1,4.8,10.9,4.8s8.4-1.6,10.9-4.8c2.5-3.2,3.7-7.9,3.7-14.1s-1.2-10.8-3.7-14c-2.5-3.2-6.1-4.8-11-4.8s-8.4,1.6-10.8,4.7c-2.5,3.1-3.7,7.8-3.7,14"/>
    </g>
    <g class="cls-11">
      <path class="cls-3" d="M1002.4,555.6c2.1,0,4.1.2,5.8.5l-1,6.8c-2-.4-3.8-.7-5.3-.7-3.9,0-7.2,1.6-10,4.8-2.8,3.2-4.2,7.1-4.2,11.8v25.9h-7.3v-48.2h6l.8,8.9h.3c1.8-3.1,4-5.6,6.5-7.3,2.5-1.7,5.3-2.6,8.3-2.6"/>
    </g>
    <g class="cls-37">
      <path class="cls-3" d="M1083,604.7v-31.4c0-3.8-.8-6.7-2.5-8.6-1.6-1.9-4.2-2.9-7.7-2.9s-7.9,1.3-10.1,3.9c-2.2,2.6-3.3,6.6-3.3,12v26.9h-7.3v-31.4c0-3.8-.8-6.7-2.5-8.6-1.6-1.9-4.2-2.9-7.7-2.9s-7.9,1.4-10.1,4.1-3.2,7.2-3.2,13.5v25.3h-7.3v-48.2h5.9l1.2,6.6h.3c1.4-2.3,3.3-4.2,5.8-5.5s5.3-2,8.4-2c7.5,0,12.5,2.7,14.8,8.2h.3c1.4-2.5,3.5-4.5,6.2-6s5.8-2.2,9.3-2.2c5.4,0,9.5,1.4,12.2,4.2s4.1,7.3,4.1,13.4v31.5h-7.3Z"/>
    </g>
    <g class="cls-35">
      <polygon class="cls-3" points="1146 604.7 1138.5 604.7 1138.5 540.4 1174.3 540.4 1174.3 547.1 1146 547.1 1146 570.6 1172.6 570.6 1172.6 577.2 1146 577.2 1146 604.7"/>
    </g>
    <g class="cls-30">
      <path class="cls-3" d="M1229.8,580.6c0,7.9-2,14-5.9,18.4s-9.4,6.6-16.4,6.6-8.1-1-11.5-3c-3.3-2-5.9-4.9-7.7-8.7-1.8-3.8-2.7-8.2-2.7-13.3,0-7.9,2-14,5.9-18.4,3.9-4.4,9.4-6.6,16.4-6.6s12.1,2.2,16.1,6.7c4,4.5,6,10.6,6,18.2M1193.1,580.6c0,6.2,1.2,10.8,3.7,14.1,2.5,3.2,6.1,4.8,10.9,4.8s8.4-1.6,10.9-4.8,3.7-7.9,3.7-14.1-1.2-10.8-3.7-14c-2.5-3.2-6.1-4.8-11-4.8s-8.4,1.6-10.8,4.7c-2.4,3.1-3.7,7.8-3.7,14"/>
    </g>
    <g class="cls-9">
      <path class="cls-3" d="M1268.9,555.6c2.1,0,4.1.2,5.8.5l-1,6.8c-2-.4-3.8-.7-5.3-.7-3.9,0-7.2,1.6-10,4.8-2.8,3.2-4.2,7.1-4.2,11.8v25.9h-7.3v-48.2h6l.8,8.9h.3c1.8-3.1,3.9-5.6,6.5-7.3,2.5-1.7,5.3-2.6,8.3-2.6"/>
    </g>
    <g class="cls-20">
      <path class="cls-3" d="M1327.4,604.7l-8.8-28.3c-.6-1.7-1.6-5.7-3.1-11.8h-.3c-1.2,5.1-2.2,9.1-3.1,11.9l-9.1,28.2h-8.4l-13.2-48.2h7.7c3.1,12.1,5.5,21.3,7.1,27.7,1.6,6.3,2.6,10.6,2.8,12.8h.3c.3-1.7.8-3.8,1.6-6.5.7-2.7,1.3-4.8,1.9-6.3l8.8-27.7h7.9l8.6,27.7c1.6,5,2.8,9.3,3.3,12.7h.3c.1-1.1.4-2.7.9-4.9.5-2.2,3.6-14,9.2-35.5h7.6l-13.3,48.2h-8.7Z"/>
    </g>
    <g class="cls-27">
      <path class="cls-3" d="M1392.1,604.7l-1.4-6.9h-.3c-2.4,3-4.8,5.1-7.2,6.1-2.4,1.1-5.4,1.6-8.9,1.6s-8.5-1.2-11.2-3.7c-2.7-2.5-4.1-6-4.1-10.5,0-9.7,7.8-14.8,23.4-15.3l8.2-.3v-3c0-3.8-.8-6.6-2.4-8.4-1.6-1.8-4.2-2.7-7.8-2.7s-8.6,1.2-13.6,3.7l-2.2-5.6c2.4-1.3,5-2.3,7.8-3,2.8-.7,5.7-1.1,8.5-1.1,5.8,0,10,1.3,12.8,3.8s4.2,6.6,4.2,12.3v32.9h-5.4ZM1375.6,599.6c4.5,0,8.1-1.2,10.7-3.7s3.9-6,3.9-10.5v-4.4l-7.3.3c-5.8.2-10,1.1-12.6,2.7-2.6,1.6-3.8,4.1-3.8,7.5s.8,4.7,2.4,6c1.6,1.4,3.8,2.1,6.7,2.1"/>
    </g>
    <g class="cls-40">
      <path class="cls-3" d="M1438.8,555.6c2.1,0,4.1.2,5.8.5l-1,6.8c-2-.4-3.8-.7-5.3-.7-3.9,0-7.2,1.6-10,4.8-2.8,3.2-4.2,7.1-4.2,11.8v25.9h-7.3v-48.2h6l.8,8.9h.3c1.8-3.1,3.9-5.6,6.5-7.3,2.5-1.7,5.3-2.6,8.3-2.6"/>
    </g>
    <g class="cls-25">
      <path class="cls-3" d="M1490.8,598.3h-.4c-3.4,4.9-8.4,7.3-15.1,7.3s-11.2-2.2-14.7-6.5-5.3-10.4-5.3-18.4,1.8-14.1,5.3-18.5,8.4-6.6,14.7-6.6,11.6,2.4,15.1,7.1h.6l-.3-3.5-.2-3.4v-19.6h7.3v68.4h-5.9l-1-6.5ZM1476.2,599.5c5,0,8.6-1.4,10.8-4.1,2.2-2.7,3.4-7.1,3.4-13.1v-1.5c0-6.8-1.1-11.7-3.4-14.6-2.3-2.9-5.9-4.4-10.9-4.4s-7.6,1.7-9.8,5c-2.3,3.3-3.4,8-3.4,14.1s1.1,10.8,3.4,13.9c2.3,3.1,5.6,4.7,9.9,4.7"/>
    </g>
    <g class="cls-15">
      <path class="cls-3" d="M1525.1,594.3l.7,1c-.8,2.9-1.9,6.3-3.3,10.2-1.4,3.9-2.9,7.5-4.5,10.8h-5.5c.8-3,1.7-6.8,2.6-11.3.9-4.5,1.6-8.1,2-10.8h8Z"/>
    </g>
    <g class="cls-18">
      <polygon class="cls-3" points="1580.2 604.7 1572.7 604.7 1572.7 540.4 1608.6 540.4 1608.6 547.1 1580.2 547.1 1580.2 570.6 1606.8 570.6 1606.8 577.2 1580.2 577.2 1580.2 604.7"/>
    </g>
    <g class="cls-23">
      <path class="cls-3" d="M1652.1,604.7l-1.4-6.9h-.3c-2.4,3-4.8,5.1-7.2,6.1-2.4,1.1-5.4,1.6-8.9,1.6s-8.5-1.2-11.2-3.7c-2.7-2.5-4.1-6-4.1-10.5,0-9.7,7.8-14.8,23.4-15.3l8.2-.3v-3c0-3.8-.8-6.6-2.4-8.4-1.6-1.8-4.2-2.7-7.8-2.7s-8.6,1.2-13.6,3.7l-2.2-5.6c2.4-1.3,5-2.3,7.8-3,2.8-.7,5.7-1.1,8.5-1.1,5.7,0,10,1.3,12.8,3.8s4.2,6.6,4.2,12.3v32.9h-5.4ZM1635.6,599.6c4.5,0,8.1-1.2,10.7-3.7s3.9-6,3.9-10.5v-4.4l-7.3.3c-5.8.2-10,1.1-12.6,2.7-2.6,1.6-3.8,4.1-3.8,7.5s.8,4.7,2.4,6c1.6,1.4,3.8,2.1,6.7,2.1"/>
    </g>
    <g class="cls-41">
      <path class="cls-3" d="M1707.9,591.6c0,4.5-1.7,8-5,10.4s-8,3.7-14.1,3.7-11.4-1-14.9-3v-6.8c2.3,1.2,4.8,2.1,7.5,2.8,2.7.7,5.2,1,7.7,1,3.8,0,6.7-.6,8.8-1.8,2.1-1.2,3.1-3.1,3.1-5.6s-.8-3.5-2.4-4.8c-1.6-1.3-4.8-2.9-9.5-4.7-4.5-1.7-7.7-3.1-9.6-4.4-1.9-1.2-3.3-2.7-4.2-4.2-.9-1.6-1.4-3.5-1.4-5.7,0-3.9,1.6-7,4.8-9.3,3.2-2.3,7.6-3.4,13.2-3.4s10.3,1,15.2,3.2l-2.6,5.9c-4.8-2-9.2-3-13.2-3s-6.1.5-7.8,1.6c-1.8,1.1-2.6,2.6-2.6,4.5s.3,2.4,1,3.3,1.7,1.8,3.2,2.6c1.5.8,4.3,2,8.4,3.6,5.7,2.1,9.6,4.2,11.6,6.3,2,2.1,3,4.8,3,8"/>
    </g>
    <g class="cls-34">
      <path class="cls-3" d="M1739.7,599.6c1.3,0,2.5,0,3.7-.3,1.2-.2,2.2-.4,2.9-.6v5.6c-.8.4-2,.7-3.5.9-1.5.2-2.9.4-4.2.4-9.3,0-14-4.9-14-14.7v-28.7h-6.9v-3.5l6.9-3,3.1-10.3h4.2v11.2h14v5.7h-14v28.4c0,2.9.7,5.1,2.1,6.7,1.4,1.5,3.3,2.3,5.7,2.3"/>
    </g>
    <g class="cls-26">
      <path class="cls-3" d="M1780.6,605.6c-7.1,0-12.8-2.2-16.9-6.5s-6.2-10.4-6.2-18.1,1.9-14,5.7-18.5,9-6.9,15.4-6.9,10.8,2,14.3,6c3.5,4,5.3,9.2,5.3,15.7v4.6h-33.2c.2,5.7,1.6,10,4.3,12.9,2.7,2.9,6.5,4.4,11.5,4.4s10.3-1.1,15.4-3.3v6.5c-2.6,1.1-5,1.9-7.3,2.4-2.3.5-5.1.7-8.4.7M1778.7,561.8c-3.9,0-7,1.3-9.3,3.8-2.3,2.5-3.7,6-4.1,10.5h25.2c0-4.6-1-8.1-3.1-10.6-2.1-2.5-5-3.7-8.8-3.7"/>
    </g>
    <g class="cls-31">
      <path class="cls-3" d="M1837.1,555.6c2.1,0,4.1.2,5.8.5l-1,6.8c-2-.4-3.8-.7-5.3-.7-3.9,0-7.2,1.6-10,4.8-2.8,3.2-4.2,7.1-4.2,11.8v25.9h-7.3v-48.2h6l.8,8.9h.3c1.8-3.1,3.9-5.6,6.5-7.3,2.5-1.7,5.3-2.6,8.3-2.6"/>
    </g>
    <g class="cls-12">
      <path class="cls-3" d="M1910.4,305.6c0,17.5-13.8,31.3-31.7,31.3s-31.8-13.8-31.8-31.3,14.1-30.9,31.8-30.9,31.7,13.8,31.7,30.9M1854.9,305.6c0,13.8,10.2,24.7,24.1,24.7s23.6-10.9,23.6-24.5-10-24.9-23.7-24.9c-13.8,0-23.9,11.1-23.9,24.7M1873.9,321.9h-7.2v-30.9c2.8-.6,6.8-.9,11.9-.9s8.5.9,10.7,2.3c1.7,1.3,3,3.8,3,6.8s-2.6,6-6.4,7.2v.4c3,1.1,4.7,3.4,5.7,7.5.9,4.7,1.5,6.6,2.3,7.7h-7.7c-.9-1.1-1.5-4-2.4-7.5-.6-3.4-2.4-4.9-6.4-4.9h-3.4v12.4h0ZM1874.1,304.3h3.4c4,0,7.2-1.3,7.2-4.5s-2.1-4.7-6.6-4.7-3.2.2-4,.4v8.8h0Z"/>
    </g>
  </g>
</svg>